<?xml version="1.0" encoding="UTF-8"?>
<svg xmlns="http://www.w3.org/2000/svg" width="960" height="600" viewBox="0 0 960 600" role="img" aria-labelledby="chart-title chart-desc">
  <title id="chart-title">备兑看涨 / Covered Call (Buy/Write) 盈亏曲线</title>
  <desc id="chart-desc">代表构造：买入标的 + 卖出 1 份 K=105 Call。到期损益与到期前（剩余 30 天）理论损益的比较。</desc>
  <style>
    :root { color-scheme: light dark; }
    text { font-family: -apple-system, BlinkMacSystemFont, 'Segoe UI', 'Noto Sans CJK SC', 'PingFang SC', sans-serif; fill:#172033; }
    .muted { fill:#536176; }
    .grid { stroke:#94a3b8; stroke-opacity:.24; stroke-width:1; }
    .axis { stroke:#172033; stroke-width:1.25; }
    .zero { stroke:#475569; stroke-width:1.6; }
    .strike { stroke:#7c3aed; stroke-width:1; stroke-dasharray:2 5; stroke-opacity:.48; }
    .strike-label { fill:#7c3aed; }
    .solid { fill:none; stroke:#1d4ed8; stroke-width:3; stroke-linecap:round; stroke-linejoin:round; }
    .before { fill:none; stroke:#c2410c; stroke-width:2.6; stroke-dasharray:9 6; stroke-linecap:round; stroke-linejoin:round; }
    .legend-bg { fill:#ffffff; fill-opacity:.92; }
    .plot-bg { fill:#f8fafc; fill-opacity:.65; }
    @media (prefers-color-scheme: dark) {
      text { fill:#e6edf7; }
      .muted { fill:#b2bfd2; }
      .grid { stroke:#64748b; }
      .axis { stroke:#e6edf7; }
      .zero { stroke:#cbd5e1; }
      .strike { stroke:#c4b5fd; }
      .strike-label { fill:#c4b5fd; }
      .solid { stroke:#60a5fa; }
      .before { stroke:#fb923c; }
      .legend-bg { fill:#171b22; }
      .plot-bg { fill:#111827; }
    }
  </style>
  <!-- Generated by scripts/generate_option_strategy_payoff_charts.py; do not edit manually. -->
  <text x="88" y="36" font-size="24" font-weight="700">备兑看涨 / Covered Call (Buy/Write)</text>
  <text x="88" y="64" font-size="15" class="muted">代表构造：买入标的 + 卖出 1 份 K=105 Call</text>
  <text x="88" y="94" font-size="13" class="muted">示例参数：S₀=100，年化波动率 σ=25%，无风险利率 r=2%，股息率 q=0%；每股损益</text>
  <text x="88" y="116" font-size="13" class="muted">期限：建仓剩 90 天；到期前曲线为剩余 30 天；实线为到期损益</text>
  <text x="88" y="138" font-size="13" class="muted">初始净期权权利金：收入 3.13；另以 S₀ 买入 1 单位标的；忽略交易成本、融资与波动率变化</text>
  <rect x="506" y="145" width="420" height="36" rx="6" class="legend-bg"/>
  <line x1="520" y1="156" x2="558" y2="156" class="solid"/>
  <text x="568" y="161" font-size="12.5">到期损益</text>
  <line x1="520" y1="174" x2="558" y2="174" class="before"/>
  <text x="568" y="179" font-size="12.5">到期前（剩余 30 天）理论损益</text>
  <rect x="88" y="184" width="838" height="338" class="plot-bg"/>
  <line x1="88.00" y1="184" x2="88.00" y2="522" class="grid"/>
  <text x="88.00" y="546" font-size="12" text-anchor="middle" class="muted">50</text>
  <line x1="297.50" y1="184" x2="297.50" y2="522" class="grid"/>
  <text x="297.50" y="546" font-size="12" text-anchor="middle" class="muted">75</text>
  <line x1="507.00" y1="184" x2="507.00" y2="522" class="grid"/>
  <text x="507.00" y="546" font-size="12" text-anchor="middle" class="muted">100</text>
  <line x1="716.50" y1="184" x2="716.50" y2="522" class="grid"/>
  <text x="716.50" y="546" font-size="12" text-anchor="middle" class="muted">125</text>
  <line x1="926.00" y1="184" x2="926.00" y2="522" class="grid"/>
  <text x="926.00" y="546" font-size="12" text-anchor="middle" class="muted">150</text>
  <line x1="88" y1="522.00" x2="926" y2="522.00" class="grid"/>
  <text x="78" y="526.00" font-size="12" text-anchor="end" class="muted">−60</text>
  <line x1="88" y1="437.50" x2="926" y2="437.50" class="grid"/>
  <text x="78" y="441.50" font-size="12" text-anchor="end" class="muted">−40</text>
  <line x1="88" y1="353.00" x2="926" y2="353.00" class="grid"/>
  <text x="78" y="357.00" font-size="12" text-anchor="end" class="muted">−20</text>
  <line x1="88" y1="268.50" x2="926" y2="268.50" class="zero"/>
  <text x="78" y="272.50" font-size="12" text-anchor="end" class="muted">0</text>
  <line x1="88" y1="184.00" x2="926" y2="184.00" class="grid"/>
  <text x="78" y="188.00" font-size="12" text-anchor="end" class="muted">20</text>
  <line x1="548.90" y1="184" x2="548.90" y2="522" class="strike"/>
  <text x="548.90" y="198" font-size="10.5" text-anchor="middle" class="strike-label">K=105</text>
  <line x1="88" y1="184" x2="88" y2="522" class="axis"/>
  <line x1="88" y1="522" x2="926" y2="522" class="axis"/>
  <path d="M 88.00,466.52 L 90.09,465.47 L 92.19,464.41 L 94.28,463.35 L 96.38,462.30 L 98.47,461.24 L 100.57,460.19 L 102.67,459.13 L 104.76,458.07 L 106.86,457.02 L 108.95,455.96 L 111.05,454.90 L 113.14,453.85 L 115.23,452.79 L 117.33,451.74 L 119.42,450.68 L 121.52,449.62 L 123.62,448.57 L 125.71,447.51 L 127.81,446.45 L 129.90,445.40 L 132.00,444.34 L 134.09,443.29 L 136.19,442.23 L 138.28,441.17 L 140.38,440.12 L 142.47,439.06 L 144.56,438.00 L 146.66,436.95 L 148.75,435.89 L 150.85,434.84 L 152.94,433.78 L 155.04,432.72 L 157.13,431.67 L 159.23,430.61 L 161.32,429.55 L 163.42,428.50 L 165.51,427.44 L 167.61,426.39 L 169.70,425.33 L 171.80,424.27 L 173.89,423.22 L 175.99,422.16 L 178.08,421.10 L 180.18,420.05 L 182.28,418.99 L 184.37,417.94 L 186.46,416.88 L 188.56,415.82 L 190.66,414.77 L 192.75,413.71 L 194.84,412.65 L 196.94,411.60 L 199.04,410.54 L 201.13,409.49 L 203.23,408.43 L 205.32,407.37 L 207.41,406.32 L 209.51,405.26 L 211.60,404.20 L 213.70,403.15 L 215.80,402.09 L 217.89,401.04 L 219.99,399.98 L 222.08,398.92 L 224.18,397.87 L 226.27,396.81 L 228.37,395.75 L 230.46,394.70 L 232.55,393.64 L 234.65,392.59 L 236.75,391.53 L 238.84,390.47 L 240.94,389.42 L 243.03,388.36 L 245.12,387.30 L 247.22,386.25 L 249.31,385.19 L 251.41,384.14 L 253.50,383.08 L 255.60,382.02 L 257.70,380.97 L 259.79,379.91 L 261.88,378.85 L 263.98,377.80 L 266.07,376.74 L 268.17,375.69 L 270.26,374.63 L 272.36,373.57 L 274.46,372.52 L 276.55,371.46 L 278.64,370.40 L 280.74,369.35 L 282.84,368.29 L 284.93,367.24 L 287.02,366.18 L 289.12,365.12 L 291.22,364.07 L 293.31,363.01 L 295.40,361.95 L 297.50,360.90 L 299.60,359.84 L 301.69,358.79 L 303.78,357.73 L 305.88,356.67 L 307.98,355.62 L 310.07,354.56 L 312.17,353.50 L 314.26,352.45 L 316.36,351.39 L 318.45,350.34 L 320.55,349.28 L 322.64,348.22 L 324.74,347.17 L 326.83,346.11 L 328.92,345.05 L 331.02,344.00 L 333.12,342.94 L 335.21,341.89 L 337.30,340.83 L 339.40,339.77 L 341.50,338.72 L 343.59,337.66 L 345.69,336.61 L 347.78,335.55 L 349.88,334.49 L 351.97,333.44 L 354.06,332.38 L 356.16,331.33 L 358.25,330.27 L 360.35,329.21 L 362.44,328.16 L 364.54,327.10 L 366.63,326.05 L 368.73,324.99 L 370.83,323.94 L 372.92,322.88 L 375.02,321.83 L 377.11,320.77 L 379.20,319.72 L 381.30,318.66 L 383.39,317.61 L 385.49,316.55 L 387.58,315.50 L 389.68,314.45 L 391.77,313.40 L 393.87,312.34 L 395.96,311.29 L 398.06,310.24 L 400.15,309.19 L 402.25,308.14 L 404.35,307.09 L 406.44,306.04 L 408.54,305.00 L 410.63,303.95 L 412.73,302.90 L 414.82,301.86 L 416.92,300.82 L 419.01,299.78 L 421.11,298.74 L 423.20,297.70 L 425.30,296.66 L 427.39,295.63 L 429.48,294.60 L 431.58,293.57 L 433.67,292.54 L 435.77,291.52 L 437.87,290.49 L 439.96,289.48 L 442.06,288.46 L 444.15,287.45 L 446.25,286.44 L 448.34,285.44 L 450.44,284.44 L 452.53,283.44 L 454.62,282.45 L 456.72,281.46 L 458.81,280.48 L 460.91,279.51 L 463.00,278.54 L 465.10,277.57 L 467.19,276.61 L 469.29,275.66 L 471.38,274.72 L 473.48,273.78 L 475.58,272.85 L 477.67,271.93 L 479.77,271.02 L 481.86,270.11 L 483.95,269.22 L 486.05,268.33 L 488.14,267.45 L 490.24,266.59 L 492.33,265.73 L 494.43,264.88 L 496.52,264.04 L 498.62,263.22 L 500.71,262.40 L 502.81,261.60 L 504.90,260.81 L 507.00,260.03 L 509.09,259.26 L 511.19,258.50 L 513.28,257.76 L 515.38,257.03 L 517.47,256.31 L 519.57,255.61 L 521.66,254.92 L 523.76,254.24 L 525.86,253.57 L 527.95,252.92 L 530.04,252.29 L 532.14,251.66 L 534.23,251.06 L 536.33,250.46 L 538.42,249.88 L 540.52,249.31 L 542.62,248.76 L 544.71,248.22 L 546.81,247.70 L 548.90,247.19 L 551.00,246.69 L 553.09,246.21 L 555.18,245.74 L 557.28,245.28 L 559.38,244.84 L 561.47,244.42 L 563.57,244.00 L 565.66,243.60 L 567.75,243.21 L 569.85,242.84 L 571.94,242.47 L 574.04,242.12 L 576.13,241.79 L 578.23,241.46 L 580.33,241.15 L 582.42,240.84 L 584.52,240.55 L 586.61,240.27 L 588.71,240.00 L 590.80,239.75 L 592.89,239.50 L 594.99,239.26 L 597.09,239.03 L 599.18,238.81 L 601.28,238.60 L 603.37,238.41 L 605.47,238.21 L 607.56,238.03 L 609.66,237.86 L 611.75,237.69 L 613.84,237.53 L 615.94,237.38 L 618.03,237.24 L 620.13,237.10 L 622.22,236.97 L 624.32,236.85 L 626.41,236.73 L 628.51,236.62 L 630.61,236.51 L 632.70,236.41 L 634.79,236.32 L 636.89,236.23 L 638.99,236.15 L 641.08,236.07 L 643.17,235.99 L 645.27,235.92 L 647.37,235.85 L 649.46,235.79 L 651.55,235.73 L 653.65,235.67 L 655.75,235.62 L 657.84,235.57 L 659.93,235.52 L 662.03,235.48 L 664.12,235.44 L 666.22,235.40 L 668.32,235.36 L 670.41,235.33 L 672.50,235.30 L 674.60,235.27 L 676.70,235.24 L 678.79,235.21 L 680.88,235.19 L 682.98,235.16 L 685.08,235.14 L 687.17,235.12 L 689.26,235.11 L 691.36,235.09 L 693.46,235.07 L 695.55,235.06 L 697.64,235.04 L 699.74,235.03 L 701.84,235.02 L 703.93,235.01 L 706.03,235.00 L 708.12,234.99 L 710.22,234.98 L 712.31,234.97 L 714.41,234.96 L 716.50,234.96 L 718.59,234.95 L 720.69,234.94 L 722.78,234.94 L 724.88,234.93 L 726.97,234.93 L 729.07,234.92 L 731.16,234.92 L 733.26,234.92 L 735.36,234.91 L 737.45,234.91 L 739.54,234.91 L 741.64,234.90 L 743.74,234.90 L 745.83,234.90 L 747.92,234.90 L 750.02,234.90 L 752.12,234.89 L 754.21,234.89 L 756.30,234.89 L 758.40,234.89 L 760.50,234.89 L 762.59,234.89 L 764.68,234.89 L 766.78,234.89 L 768.88,234.88 L 770.97,234.88 L 773.07,234.88 L 775.16,234.88 L 777.25,234.88 L 779.35,234.88 L 781.45,234.88 L 783.54,234.88 L 785.63,234.88 L 787.73,234.88 L 789.83,234.88 L 791.92,234.88 L 794.01,234.88 L 796.11,234.88 L 798.21,234.88 L 800.30,234.88 L 802.39,234.88 L 804.49,234.88 L 806.59,234.88 L 808.68,234.88 L 810.78,234.88 L 812.87,234.88 L 814.97,234.88 L 817.06,234.88 L 819.16,234.88 L 821.25,234.88 L 823.34,234.88 L 825.44,234.88 L 827.53,234.88 L 829.63,234.88 L 831.72,234.88 L 833.82,234.88 L 835.91,234.88 L 838.01,234.88 L 840.11,234.88 L 842.20,234.88 L 844.29,234.88 L 846.39,234.88 L 848.49,234.88 L 850.58,234.88 L 852.67,234.88 L 854.77,234.88 L 856.87,234.88 L 858.96,234.88 L 861.05,234.88 L 863.15,234.88 L 865.25,234.88 L 867.34,234.88 L 869.43,234.88 L 871.53,234.88 L 873.62,234.88 L 875.72,234.88 L 877.82,234.88 L 879.91,234.88 L 882.00,234.88 L 884.10,234.88 L 886.20,234.88 L 888.29,234.88 L 890.38,234.88 L 892.48,234.88 L 894.58,234.88 L 896.67,234.88 L 898.76,234.88 L 900.86,234.88 L 902.96,234.88 L 905.05,234.88 L 907.14,234.88 L 909.24,234.88 L 911.34,234.88 L 913.43,234.88 L 915.53,234.88 L 917.62,234.88 L 919.72,234.88 L 921.81,234.88 L 923.91,234.88 L 926.00,234.88" class="before"/>
  <path d="M 88.00,466.52 L 90.09,465.47 L 92.19,464.41 L 94.28,463.35 L 96.38,462.30 L 98.47,461.24 L 100.57,460.19 L 102.67,459.13 L 104.76,458.07 L 106.86,457.02 L 108.95,455.96 L 111.05,454.90 L 113.14,453.85 L 115.23,452.79 L 117.33,451.74 L 119.42,450.68 L 121.52,449.62 L 123.62,448.57 L 125.71,447.51 L 127.81,446.45 L 129.90,445.40 L 132.00,444.34 L 134.09,443.29 L 136.19,442.23 L 138.28,441.17 L 140.38,440.12 L 142.47,439.06 L 144.56,438.00 L 146.66,436.95 L 148.75,435.89 L 150.85,434.84 L 152.94,433.78 L 155.04,432.72 L 157.13,431.67 L 159.23,430.61 L 161.32,429.55 L 163.42,428.50 L 165.51,427.44 L 167.61,426.39 L 169.70,425.33 L 171.80,424.27 L 173.89,423.22 L 175.99,422.16 L 178.08,421.10 L 180.18,420.05 L 182.28,418.99 L 184.37,417.94 L 186.46,416.88 L 188.56,415.82 L 190.66,414.77 L 192.75,413.71 L 194.84,412.65 L 196.94,411.60 L 199.04,410.54 L 201.13,409.49 L 203.23,408.43 L 205.32,407.37 L 207.41,406.32 L 209.51,405.26 L 211.60,404.20 L 213.70,403.15 L 215.80,402.09 L 217.89,401.04 L 219.99,399.98 L 222.08,398.92 L 224.18,397.87 L 226.27,396.81 L 228.37,395.75 L 230.46,394.70 L 232.55,393.64 L 234.65,392.59 L 236.75,391.53 L 238.84,390.47 L 240.94,389.42 L 243.03,388.36 L 245.12,387.30 L 247.22,386.25 L 249.31,385.19 L 251.41,384.14 L 253.50,383.08 L 255.60,382.02 L 257.70,380.97 L 259.79,379.91 L 261.88,378.85 L 263.98,377.80 L 266.07,376.74 L 268.17,375.69 L 270.26,374.63 L 272.36,373.57 L 274.46,372.52 L 276.55,371.46 L 278.64,370.40 L 280.74,369.35 L 282.84,368.29 L 284.93,367.24 L 287.02,366.18 L 289.12,365.12 L 291.22,364.07 L 293.31,363.01 L 295.40,361.95 L 297.50,360.90 L 299.60,359.84 L 301.69,358.79 L 303.78,357.73 L 305.88,356.67 L 307.98,355.62 L 310.07,354.56 L 312.17,353.50 L 314.26,352.45 L 316.36,351.39 L 318.45,350.34 L 320.55,349.28 L 322.64,348.22 L 324.74,347.17 L 326.83,346.11 L 328.92,345.05 L 331.02,344.00 L 333.12,342.94 L 335.21,341.89 L 337.30,340.83 L 339.40,339.77 L 341.50,338.72 L 343.59,337.66 L 345.69,336.60 L 347.78,335.55 L 349.88,334.49 L 351.97,333.44 L 354.06,332.38 L 356.16,331.32 L 358.25,330.27 L 360.35,329.21 L 362.44,328.15 L 364.54,327.10 L 366.63,326.04 L 368.73,324.99 L 370.83,323.93 L 372.92,322.87 L 375.02,321.82 L 377.11,320.76 L 379.20,319.70 L 381.30,318.65 L 383.39,317.59 L 385.49,316.54 L 387.58,315.48 L 389.68,314.42 L 391.77,313.37 L 393.87,312.31 L 395.96,311.25 L 398.06,310.20 L 400.15,309.14 L 402.25,308.09 L 404.35,307.03 L 406.44,305.97 L 408.54,304.92 L 410.63,303.86 L 412.73,302.80 L 414.82,301.75 L 416.92,300.69 L 419.01,299.64 L 421.11,298.58 L 423.20,297.52 L 425.30,296.47 L 427.39,295.41 L 429.48,294.35 L 431.58,293.30 L 433.67,292.24 L 435.77,291.19 L 437.87,290.13 L 439.96,289.07 L 442.06,288.02 L 444.15,286.96 L 446.25,285.90 L 448.34,284.85 L 450.44,283.79 L 452.53,282.74 L 454.62,281.68 L 456.72,280.62 L 458.81,279.57 L 460.91,278.51 L 463.00,277.45 L 465.10,276.40 L 467.19,275.34 L 469.29,274.29 L 471.38,273.23 L 473.48,272.17 L 475.58,271.12 L 477.67,270.06 L 479.77,269.00 L 481.86,267.95 L 483.95,266.89 L 486.05,265.84 L 488.14,264.78 L 490.24,263.72 L 492.33,262.67 L 494.43,261.61 L 496.52,260.55 L 498.62,259.50 L 500.71,258.44 L 502.81,257.39 L 504.90,256.33 L 507.00,255.27 L 509.09,254.22 L 511.19,253.16 L 513.28,252.10 L 515.38,251.05 L 517.47,249.99 L 519.57,248.94 L 521.66,247.88 L 523.76,246.82 L 525.86,245.77 L 527.95,244.71 L 530.04,243.65 L 532.14,242.60 L 534.23,241.54 L 536.33,240.49 L 538.42,239.43 L 540.52,238.37 L 542.62,237.32 L 544.71,236.26 L 546.81,235.20 L 548.90,234.15 L 551.00,234.15 L 553.09,234.15 L 555.18,234.15 L 557.28,234.15 L 559.38,234.15 L 561.47,234.15 L 563.57,234.15 L 565.66,234.15 L 567.75,234.15 L 569.85,234.15 L 571.94,234.15 L 574.04,234.15 L 576.13,234.15 L 578.23,234.15 L 580.33,234.15 L 582.42,234.15 L 584.52,234.15 L 586.61,234.15 L 588.71,234.15 L 590.80,234.15 L 592.89,234.15 L 594.99,234.15 L 597.09,234.15 L 599.18,234.15 L 601.28,234.15 L 603.37,234.15 L 605.47,234.15 L 607.56,234.15 L 609.66,234.15 L 611.75,234.15 L 613.84,234.15 L 615.94,234.15 L 618.03,234.15 L 620.13,234.15 L 622.22,234.15 L 624.32,234.15 L 626.41,234.15 L 628.51,234.15 L 630.61,234.15 L 632.70,234.15 L 634.79,234.15 L 636.89,234.15 L 638.99,234.15 L 641.08,234.15 L 643.17,234.15 L 645.27,234.15 L 647.37,234.15 L 649.46,234.15 L 651.55,234.15 L 653.65,234.15 L 655.75,234.15 L 657.84,234.15 L 659.93,234.15 L 662.03,234.15 L 664.12,234.15 L 666.22,234.15 L 668.32,234.15 L 670.41,234.15 L 672.50,234.15 L 674.60,234.15 L 676.70,234.15 L 678.79,234.15 L 680.88,234.15 L 682.98,234.15 L 685.08,234.15 L 687.17,234.15 L 689.26,234.15 L 691.36,234.15 L 693.46,234.15 L 695.55,234.15 L 697.64,234.15 L 699.74,234.15 L 701.84,234.15 L 703.93,234.15 L 706.03,234.15 L 708.12,234.15 L 710.22,234.15 L 712.31,234.15 L 714.41,234.15 L 716.50,234.15 L 718.59,234.15 L 720.69,234.15 L 722.78,234.15 L 724.88,234.15 L 726.97,234.15 L 729.07,234.15 L 731.16,234.15 L 733.26,234.15 L 735.36,234.15 L 737.45,234.15 L 739.54,234.15 L 741.64,234.15 L 743.74,234.15 L 745.83,234.15 L 747.92,234.15 L 750.02,234.15 L 752.12,234.15 L 754.21,234.15 L 756.30,234.15 L 758.40,234.15 L 760.50,234.15 L 762.59,234.15 L 764.68,234.15 L 766.78,234.15 L 768.88,234.15 L 770.97,234.15 L 773.07,234.15 L 775.16,234.15 L 777.25,234.15 L 779.35,234.15 L 781.45,234.15 L 783.54,234.15 L 785.63,234.15 L 787.73,234.15 L 789.83,234.15 L 791.92,234.15 L 794.01,234.15 L 796.11,234.15 L 798.21,234.15 L 800.30,234.15 L 802.39,234.15 L 804.49,234.15 L 806.59,234.15 L 808.68,234.15 L 810.78,234.15 L 812.87,234.15 L 814.97,234.15 L 817.06,234.15 L 819.16,234.15 L 821.25,234.15 L 823.34,234.15 L 825.44,234.15 L 827.53,234.15 L 829.63,234.15 L 831.72,234.15 L 833.82,234.15 L 835.91,234.15 L 838.01,234.15 L 840.11,234.15 L 842.20,234.15 L 844.29,234.15 L 846.39,234.15 L 848.49,234.15 L 850.58,234.15 L 852.67,234.15 L 854.77,234.15 L 856.87,234.15 L 858.96,234.15 L 861.05,234.15 L 863.15,234.15 L 865.25,234.15 L 867.34,234.15 L 869.43,234.15 L 871.53,234.15 L 873.62,234.15 L 875.72,234.15 L 877.82,234.15 L 879.91,234.15 L 882.00,234.15 L 884.10,234.15 L 886.20,234.15 L 888.29,234.15 L 890.38,234.15 L 892.48,234.15 L 894.58,234.15 L 896.67,234.15 L 898.76,234.15 L 900.86,234.15 L 902.96,234.15 L 905.05,234.15 L 907.14,234.15 L 909.24,234.15 L 911.34,234.15 L 913.43,234.15 L 915.53,234.15 L 917.62,234.15 L 919.72,234.15 L 921.81,234.15 L 923.91,234.15 L 926.00,234.15" class="solid"/>
  <text x="507.00" y="574" font-size="14" text-anchor="middle">标的价格 S</text>
  <text x="24" y="353.00" font-size="14" text-anchor="middle" transform="rotate(-90 24 353.00)">每股损益</text>
</svg>
