<?xml version="1.0" encoding="UTF-8"?>
<svg xmlns="http://www.w3.org/2000/svg" width="960" height="600" viewBox="0 0 960 600" role="img" aria-labelledby="chart-title chart-desc">
  <title id="chart-title">空头看跌日历价差 / Short Put Calendar Spread 盈亏曲线</title>
  <desc id="chart-desc">代表构造：买近月 K=100 Put，卖远月 K=100 Put。近月到期日（远月剩 90 天）理论损益与到期前（近月剩 30 天）理论损益的比较。</desc>
  <style>
    :root { color-scheme: light dark; }
    text { font-family: -apple-system, BlinkMacSystemFont, 'Segoe UI', 'Noto Sans CJK SC', 'PingFang SC', sans-serif; fill:#172033; }
    .muted { fill:#536176; }
    .grid { stroke:#94a3b8; stroke-opacity:.24; stroke-width:1; }
    .axis { stroke:#172033; stroke-width:1.25; }
    .zero { stroke:#475569; stroke-width:1.6; }
    .strike { stroke:#7c3aed; stroke-width:1; stroke-dasharray:2 5; stroke-opacity:.48; }
    .strike-label { fill:#7c3aed; }
    .solid { fill:none; stroke:#1d4ed8; stroke-width:3; stroke-linecap:round; stroke-linejoin:round; }
    .before { fill:none; stroke:#c2410c; stroke-width:2.6; stroke-dasharray:9 6; stroke-linecap:round; stroke-linejoin:round; }
    .legend-bg { fill:#ffffff; fill-opacity:.92; }
    .plot-bg { fill:#f8fafc; fill-opacity:.65; }
    @media (prefers-color-scheme: dark) {
      text { fill:#e6edf7; }
      .muted { fill:#b2bfd2; }
      .grid { stroke:#64748b; }
      .axis { stroke:#e6edf7; }
      .zero { stroke:#cbd5e1; }
      .strike { stroke:#c4b5fd; }
      .strike-label { fill:#c4b5fd; }
      .solid { stroke:#60a5fa; }
      .before { stroke:#fb923c; }
      .legend-bg { fill:#171b22; }
      .plot-bg { fill:#111827; }
    }
  </style>
  <!-- Generated by scripts/generate_option_strategy_payoff_charts.py; do not edit manually. -->
  <text x="88" y="36" font-size="24" font-weight="700">空头看跌日历价差 / Short Put Calendar Spread</text>
  <text x="88" y="64" font-size="15" class="muted">代表构造：买近月 K=100 Put，卖远月 K=100 Put</text>
  <text x="88" y="94" font-size="13" class="muted">示例参数：S₀=100，年化波动率 σ=25%，无风险利率 r=2%，股息率 q=0%；每股损益</text>
  <text x="88" y="116" font-size="13" class="muted">期限：近月 90 天、远月 180 天；观察时近月剩 30 天、远月剩 120 天</text>
  <text x="88" y="138" font-size="13" class="muted">初始净期权权利金：收入 1.79；忽略交易成本、融资与波动率变化</text>
  <rect x="506" y="145" width="420" height="36" rx="6" class="legend-bg"/>
  <line x1="520" y1="156" x2="558" y2="156" class="solid"/>
  <text x="568" y="161" font-size="12.5">近月到期日（远月剩 90 天）理论损益</text>
  <line x1="520" y1="174" x2="558" y2="174" class="before"/>
  <text x="568" y="179" font-size="12.5">到期前（近月剩 30 天）理论损益</text>
  <rect x="88" y="184" width="838" height="338" class="plot-bg"/>
  <line x1="88.00" y1="184" x2="88.00" y2="522" class="grid"/>
  <text x="88.00" y="546" font-size="12" text-anchor="middle" class="muted">50</text>
  <line x1="297.50" y1="184" x2="297.50" y2="522" class="grid"/>
  <text x="297.50" y="546" font-size="12" text-anchor="middle" class="muted">75</text>
  <line x1="507.00" y1="184" x2="507.00" y2="522" class="grid"/>
  <text x="507.00" y="546" font-size="12" text-anchor="middle" class="muted">100</text>
  <line x1="716.50" y1="184" x2="716.50" y2="522" class="grid"/>
  <text x="716.50" y="546" font-size="12" text-anchor="middle" class="muted">125</text>
  <line x1="926.00" y1="184" x2="926.00" y2="522" class="grid"/>
  <text x="926.00" y="546" font-size="12" text-anchor="middle" class="muted">150</text>
  <line x1="88" y1="522.00" x2="926" y2="522.00" class="grid"/>
  <text x="78" y="526.00" font-size="12" text-anchor="end" class="muted">−4</text>
  <line x1="88" y1="437.50" x2="926" y2="437.50" class="grid"/>
  <text x="78" y="441.50" font-size="12" text-anchor="end" class="muted">−2</text>
  <line x1="88" y1="353.00" x2="926" y2="353.00" class="zero"/>
  <text x="78" y="357.00" font-size="12" text-anchor="end" class="muted">0</text>
  <line x1="88" y1="268.50" x2="926" y2="268.50" class="grid"/>
  <text x="78" y="272.50" font-size="12" text-anchor="end" class="muted">2</text>
  <line x1="88" y1="184.00" x2="926" y2="184.00" class="grid"/>
  <text x="78" y="188.00" font-size="12" text-anchor="end" class="muted">4</text>
  <line x1="507.00" y1="184" x2="507.00" y2="522" class="strike"/>
  <text x="507.00" y="198" font-size="10.5" text-anchor="middle" class="strike-label">K=100</text>
  <line x1="88" y1="184" x2="88" y2="522" class="axis"/>
  <line x1="88" y1="522" x2="926" y2="522" class="axis"/>
  <path d="M 88.00,256.80 L 90.09,256.80 L 92.19,256.80 L 94.28,256.80 L 96.38,256.80 L 98.47,256.80 L 100.57,256.80 L 102.67,256.80 L 104.76,256.80 L 106.86,256.80 L 108.95,256.80 L 111.05,256.80 L 113.14,256.80 L 115.23,256.80 L 117.33,256.80 L 119.42,256.80 L 121.52,256.80 L 123.62,256.80 L 125.71,256.80 L 127.81,256.80 L 129.90,256.80 L 132.00,256.80 L 134.09,256.80 L 136.19,256.81 L 138.28,256.81 L 140.38,256.81 L 142.47,256.81 L 144.56,256.81 L 146.66,256.81 L 148.75,256.81 L 150.85,256.81 L 152.94,256.81 L 155.04,256.81 L 157.13,256.81 L 159.23,256.81 L 161.32,256.82 L 163.42,256.82 L 165.51,256.82 L 167.61,256.82 L 169.70,256.82 L 171.80,256.83 L 173.89,256.83 L 175.99,256.83 L 178.08,256.84 L 180.18,256.84 L 182.28,256.85 L 184.37,256.85 L 186.46,256.86 L 188.56,256.87 L 190.66,256.87 L 192.75,256.88 L 194.84,256.89 L 196.94,256.90 L 199.04,256.91 L 201.13,256.92 L 203.23,256.93 L 205.32,256.95 L 207.41,256.96 L 209.51,256.98 L 211.60,257.00 L 213.70,257.02 L 215.80,257.04 L 217.89,257.06 L 219.99,257.09 L 222.08,257.11 L 224.18,257.14 L 226.27,257.18 L 228.37,257.21 L 230.46,257.25 L 232.55,257.29 L 234.65,257.33 L 236.75,257.38 L 238.84,257.43 L 240.94,257.49 L 243.03,257.55 L 245.12,257.61 L 247.22,257.68 L 249.31,257.75 L 251.41,257.83 L 253.50,257.92 L 255.60,258.01 L 257.70,258.11 L 259.79,258.21 L 261.88,258.32 L 263.98,258.44 L 266.07,258.56 L 268.17,258.70 L 270.26,258.84 L 272.36,258.99 L 274.46,259.15 L 276.55,259.33 L 278.64,259.51 L 280.74,259.70 L 282.84,259.91 L 284.93,260.12 L 287.02,260.35 L 289.12,260.60 L 291.22,260.85 L 293.31,261.13 L 295.40,261.41 L 297.50,261.71 L 299.60,262.03 L 301.69,262.37 L 303.78,262.72 L 305.88,263.09 L 307.98,263.48 L 310.07,263.90 L 312.17,264.33 L 314.26,264.78 L 316.36,265.25 L 318.45,265.75 L 320.55,266.27 L 322.64,266.82 L 324.74,267.39 L 326.83,267.98 L 328.92,268.60 L 331.02,269.25 L 333.12,269.93 L 335.21,270.64 L 337.30,271.37 L 339.40,272.14 L 341.50,272.93 L 343.59,273.76 L 345.69,274.62 L 347.78,275.51 L 349.88,276.44 L 351.97,277.40 L 354.06,278.40 L 356.16,279.43 L 358.25,280.49 L 360.35,281.60 L 362.44,282.73 L 364.54,283.91 L 366.63,285.12 L 368.73,286.37 L 370.83,287.66 L 372.92,288.98 L 375.02,290.34 L 377.11,291.74 L 379.20,293.18 L 381.30,294.65 L 383.39,296.16 L 385.49,297.70 L 387.58,299.29 L 389.68,300.90 L 391.77,302.55 L 393.87,304.23 L 395.96,305.95 L 398.06,307.70 L 400.15,309.47 L 402.25,311.28 L 404.35,313.11 L 406.44,314.97 L 408.54,316.85 L 410.63,318.76 L 412.73,320.68 L 414.82,322.63 L 416.92,324.59 L 419.01,326.56 L 421.11,328.55 L 423.20,330.54 L 425.30,332.55 L 427.39,334.56 L 429.48,336.57 L 431.58,338.57 L 433.67,340.58 L 435.77,342.58 L 437.87,344.57 L 439.96,346.55 L 442.06,348.51 L 444.15,350.46 L 446.25,352.38 L 448.34,354.28 L 450.44,356.15 L 452.53,358.00 L 454.62,359.81 L 456.72,361.58 L 458.81,363.32 L 460.91,365.01 L 463.00,366.66 L 465.10,368.26 L 467.19,369.81 L 469.29,371.32 L 471.38,372.76 L 473.48,374.15 L 475.58,375.48 L 477.67,376.75 L 479.77,377.96 L 481.86,379.10 L 483.95,380.18 L 486.05,381.19 L 488.14,382.13 L 490.24,383.00 L 492.33,383.80 L 494.43,384.52 L 496.52,385.17 L 498.62,385.75 L 500.71,386.26 L 502.81,386.69 L 504.90,387.05 L 507.00,387.33 L 509.09,387.54 L 511.19,387.68 L 513.28,387.74 L 515.38,387.73 L 517.47,387.65 L 519.57,387.50 L 521.66,387.29 L 523.76,387.00 L 525.86,386.65 L 527.95,386.23 L 530.04,385.75 L 532.14,385.20 L 534.23,384.60 L 536.33,383.94 L 538.42,383.22 L 540.52,382.45 L 542.62,381.62 L 544.71,380.75 L 546.81,379.83 L 548.90,378.86 L 551.00,377.85 L 553.09,376.80 L 555.18,375.71 L 557.28,374.58 L 559.38,373.42 L 561.47,372.22 L 563.57,371.00 L 565.66,369.75 L 567.75,368.47 L 569.85,367.17 L 571.94,365.85 L 574.04,364.51 L 576.13,363.15 L 578.23,361.78 L 580.33,360.39 L 582.42,359.00 L 584.52,357.59 L 586.61,356.18 L 588.71,354.77 L 590.80,353.35 L 592.89,351.93 L 594.99,350.50 L 597.09,349.08 L 599.18,347.67 L 601.28,346.25 L 603.37,344.85 L 605.47,343.45 L 607.56,342.05 L 609.66,340.67 L 611.75,339.30 L 613.84,337.94 L 615.94,336.59 L 618.03,335.25 L 620.13,333.93 L 622.22,332.62 L 624.32,331.33 L 626.41,330.06 L 628.51,328.80 L 630.61,327.56 L 632.70,326.33 L 634.79,325.13 L 636.89,323.94 L 638.99,322.77 L 641.08,321.62 L 643.17,320.49 L 645.27,319.38 L 647.37,318.29 L 649.46,317.22 L 651.55,316.17 L 653.65,315.14 L 655.75,314.13 L 657.84,313.14 L 659.93,312.17 L 662.03,311.23 L 664.12,310.30 L 666.22,309.39 L 668.32,308.50 L 670.41,307.63 L 672.50,306.78 L 674.60,305.95 L 676.70,305.14 L 678.79,304.34 L 680.88,303.57 L 682.98,302.82 L 685.08,302.08 L 687.17,301.36 L 689.26,300.66 L 691.36,299.98 L 693.46,299.31 L 695.55,298.66 L 697.64,298.03 L 699.74,297.41 L 701.84,296.81 L 703.93,296.23 L 706.03,295.66 L 708.12,295.10 L 710.22,294.57 L 712.31,294.04 L 714.41,293.53 L 716.50,293.04 L 718.59,292.55 L 720.69,292.08 L 722.78,291.63 L 724.88,291.19 L 726.97,290.76 L 729.07,290.34 L 731.16,289.93 L 733.26,289.54 L 735.36,289.15 L 737.45,288.78 L 739.54,288.42 L 741.64,288.07 L 743.74,287.73 L 745.83,287.40 L 747.92,287.08 L 750.02,286.77 L 752.12,286.47 L 754.21,286.18 L 756.30,285.89 L 758.40,285.62 L 760.50,285.35 L 762.59,285.09 L 764.68,284.84 L 766.78,284.60 L 768.88,284.37 L 770.97,284.14 L 773.07,283.92 L 775.16,283.70 L 777.25,283.50 L 779.35,283.30 L 781.45,283.10 L 783.54,282.91 L 785.63,282.73 L 787.73,282.55 L 789.83,282.38 L 791.92,282.22 L 794.01,282.06 L 796.11,281.90 L 798.21,281.75 L 800.30,281.61 L 802.39,281.47 L 804.49,281.33 L 806.59,281.20 L 808.68,281.07 L 810.78,280.95 L 812.87,280.83 L 814.97,280.72 L 817.06,280.61 L 819.16,280.50 L 821.25,280.40 L 823.34,280.30 L 825.44,280.20 L 827.53,280.10 L 829.63,280.01 L 831.72,279.93 L 833.82,279.84 L 835.91,279.76 L 838.01,279.68 L 840.11,279.61 L 842.20,279.53 L 844.29,279.46 L 846.39,279.39 L 848.49,279.33 L 850.58,279.26 L 852.67,279.20 L 854.77,279.14 L 856.87,279.08 L 858.96,279.03 L 861.05,278.97 L 863.15,278.92 L 865.25,278.87 L 867.34,278.82 L 869.43,278.78 L 871.53,278.73 L 873.62,278.69 L 875.72,278.65 L 877.82,278.61 L 879.91,278.57 L 882.00,278.53 L 884.10,278.49 L 886.20,278.46 L 888.29,278.42 L 890.38,278.39 L 892.48,278.36 L 894.58,278.33 L 896.67,278.30 L 898.76,278.27 L 900.86,278.25 L 902.96,278.22 L 905.05,278.19 L 907.14,278.17 L 909.24,278.15 L 911.34,278.12 L 913.43,278.10 L 915.53,278.08 L 917.62,278.06 L 919.72,278.04 L 921.81,278.02 L 923.91,278.01 L 926.00,277.99" class="before"/>
  <path d="M 88.00,256.77 L 90.09,256.77 L 92.19,256.77 L 94.28,256.77 L 96.38,256.77 L 98.47,256.77 L 100.57,256.77 L 102.67,256.77 L 104.76,256.77 L 106.86,256.77 L 108.95,256.77 L 111.05,256.77 L 113.14,256.77 L 115.23,256.77 L 117.33,256.77 L 119.42,256.77 L 121.52,256.77 L 123.62,256.77 L 125.71,256.77 L 127.81,256.77 L 129.90,256.77 L 132.00,256.77 L 134.09,256.77 L 136.19,256.77 L 138.28,256.77 L 140.38,256.77 L 142.47,256.77 L 144.56,256.77 L 146.66,256.77 L 148.75,256.77 L 150.85,256.77 L 152.94,256.77 L 155.04,256.77 L 157.13,256.77 L 159.23,256.77 L 161.32,256.77 L 163.42,256.77 L 165.51,256.77 L 167.61,256.77 L 169.70,256.77 L 171.80,256.77 L 173.89,256.77 L 175.99,256.77 L 178.08,256.77 L 180.18,256.77 L 182.28,256.77 L 184.37,256.77 L 186.46,256.77 L 188.56,256.77 L 190.66,256.78 L 192.75,256.78 L 194.84,256.78 L 196.94,256.78 L 199.04,256.78 L 201.13,256.78 L 203.23,256.79 L 205.32,256.79 L 207.41,256.79 L 209.51,256.79 L 211.60,256.80 L 213.70,256.80 L 215.80,256.80 L 217.89,256.81 L 219.99,256.81 L 222.08,256.82 L 224.18,256.83 L 226.27,256.83 L 228.37,256.84 L 230.46,256.85 L 232.55,256.86 L 234.65,256.87 L 236.75,256.88 L 238.84,256.90 L 240.94,256.91 L 243.03,256.93 L 245.12,256.95 L 247.22,256.97 L 249.31,256.99 L 251.41,257.01 L 253.50,257.04 L 255.60,257.07 L 257.70,257.10 L 259.79,257.13 L 261.88,257.17 L 263.98,257.21 L 266.07,257.25 L 268.17,257.30 L 270.26,257.35 L 272.36,257.40 L 274.46,257.46 L 276.55,257.53 L 278.64,257.60 L 280.74,257.68 L 282.84,257.76 L 284.93,257.85 L 287.02,257.94 L 289.12,258.04 L 291.22,258.15 L 293.31,258.27 L 295.40,258.40 L 297.50,258.54 L 299.60,258.68 L 301.69,258.84 L 303.78,259.01 L 305.88,259.18 L 307.98,259.38 L 310.07,259.58 L 312.17,259.80 L 314.26,260.03 L 316.36,260.27 L 318.45,260.53 L 320.55,260.81 L 322.64,261.11 L 324.74,261.42 L 326.83,261.75 L 328.92,262.10 L 331.02,262.47 L 333.12,262.87 L 335.21,263.28 L 337.30,263.72 L 339.40,264.18 L 341.50,264.67 L 343.59,265.18 L 345.69,265.72 L 347.78,266.29 L 349.88,266.89 L 351.97,267.52 L 354.06,268.18 L 356.16,268.88 L 358.25,269.60 L 360.35,270.37 L 362.44,271.16 L 364.54,272.00 L 366.63,272.87 L 368.73,273.79 L 370.83,274.74 L 372.92,275.74 L 375.02,276.78 L 377.11,277.86 L 379.20,278.99 L 381.30,280.17 L 383.39,281.39 L 385.49,282.66 L 387.58,283.99 L 389.68,285.37 L 391.77,286.80 L 393.87,288.28 L 395.96,289.82 L 398.06,291.42 L 400.15,293.07 L 402.25,294.78 L 404.35,296.56 L 406.44,298.39 L 408.54,300.29 L 410.63,302.25 L 412.73,304.28 L 414.82,306.37 L 416.92,308.53 L 419.01,310.76 L 421.11,313.06 L 423.20,315.43 L 425.30,317.87 L 427.39,320.38 L 429.48,322.96 L 431.58,325.62 L 433.67,328.36 L 435.77,331.17 L 437.87,334.05 L 439.96,337.02 L 442.06,340.06 L 444.15,343.18 L 446.25,346.39 L 448.34,349.67 L 450.44,353.03 L 452.53,356.48 L 454.62,360.01 L 456.72,363.62 L 458.81,367.31 L 460.91,371.09 L 463.00,374.95 L 465.10,378.90 L 467.19,382.93 L 469.29,387.05 L 471.38,391.26 L 473.48,395.54 L 475.58,399.92 L 477.67,404.38 L 479.77,408.93 L 481.86,413.57 L 483.95,418.29 L 486.05,423.10 L 488.14,427.99 L 490.24,432.97 L 492.33,438.04 L 494.43,443.19 L 496.52,448.43 L 498.62,453.76 L 500.71,459.17 L 502.81,464.67 L 504.90,470.25 L 507.00,475.92 L 509.09,471.11 L 511.19,466.38 L 513.28,461.74 L 515.38,457.18 L 517.47,452.70 L 519.57,448.31 L 521.66,443.99 L 523.76,439.76 L 525.86,435.61 L 527.95,431.53 L 530.04,427.54 L 532.14,423.62 L 534.23,419.79 L 536.33,416.03 L 538.42,412.34 L 540.52,408.73 L 542.62,405.20 L 544.71,401.74 L 546.81,398.36 L 548.90,395.04 L 551.00,391.80 L 553.09,388.63 L 555.18,385.52 L 557.28,382.49 L 559.38,379.53 L 561.47,376.63 L 563.57,373.80 L 565.66,371.03 L 567.75,368.33 L 569.85,365.69 L 571.94,363.11 L 574.04,360.60 L 576.13,358.14 L 578.23,355.75 L 580.33,353.41 L 582.42,351.13 L 584.52,348.91 L 586.61,346.74 L 588.71,344.63 L 590.80,342.58 L 592.89,340.57 L 594.99,338.62 L 597.09,336.72 L 599.18,334.86 L 601.28,333.06 L 603.37,331.31 L 605.47,329.60 L 607.56,327.94 L 609.66,326.32 L 611.75,324.75 L 613.84,323.22 L 615.94,321.74 L 618.03,320.29 L 620.13,318.89 L 622.22,317.53 L 624.32,316.20 L 626.41,314.91 L 628.51,313.67 L 630.61,312.45 L 632.70,311.28 L 634.79,310.13 L 636.89,309.02 L 638.99,307.95 L 641.08,306.91 L 643.17,305.89 L 645.27,304.91 L 647.37,303.96 L 649.46,303.04 L 651.55,302.15 L 653.65,301.28 L 655.75,300.44 L 657.84,299.63 L 659.93,298.85 L 662.03,298.09 L 664.12,297.35 L 666.22,296.64 L 668.32,295.95 L 670.41,295.28 L 672.50,294.63 L 674.60,294.01 L 676.70,293.40 L 678.79,292.82 L 680.88,292.26 L 682.98,291.71 L 685.08,291.18 L 687.17,290.67 L 689.26,290.18 L 691.36,289.71 L 693.46,289.25 L 695.55,288.80 L 697.64,288.37 L 699.74,287.96 L 701.84,287.56 L 703.93,287.18 L 706.03,286.81 L 708.12,286.45 L 710.22,286.10 L 712.31,285.77 L 714.41,285.45 L 716.50,285.14 L 718.59,284.84 L 720.69,284.55 L 722.78,284.28 L 724.88,284.01 L 726.97,283.75 L 729.07,283.51 L 731.16,283.27 L 733.26,283.04 L 735.36,282.82 L 737.45,282.60 L 739.54,282.40 L 741.64,282.20 L 743.74,282.01 L 745.83,281.83 L 747.92,281.66 L 750.02,281.49 L 752.12,281.33 L 754.21,281.17 L 756.30,281.02 L 758.40,280.88 L 760.50,280.74 L 762.59,280.60 L 764.68,280.48 L 766.78,280.35 L 768.88,280.23 L 770.97,280.12 L 773.07,280.01 L 775.16,279.91 L 777.25,279.81 L 779.35,279.71 L 781.45,279.62 L 783.54,279.53 L 785.63,279.45 L 787.73,279.36 L 789.83,279.29 L 791.92,279.21 L 794.01,279.14 L 796.11,279.07 L 798.21,279.00 L 800.30,278.94 L 802.39,278.88 L 804.49,278.82 L 806.59,278.77 L 808.68,278.71 L 810.78,278.66 L 812.87,278.61 L 814.97,278.56 L 817.06,278.52 L 819.16,278.48 L 821.25,278.43 L 823.34,278.40 L 825.44,278.36 L 827.53,278.32 L 829.63,278.29 L 831.72,278.25 L 833.82,278.22 L 835.91,278.19 L 838.01,278.16 L 840.11,278.13 L 842.20,278.11 L 844.29,278.08 L 846.39,278.06 L 848.49,278.04 L 850.58,278.01 L 852.67,277.99 L 854.77,277.97 L 856.87,277.95 L 858.96,277.93 L 861.05,277.92 L 863.15,277.90 L 865.25,277.88 L 867.34,277.87 L 869.43,277.85 L 871.53,277.84 L 873.62,277.82 L 875.72,277.81 L 877.82,277.80 L 879.91,277.79 L 882.00,277.78 L 884.10,277.77 L 886.20,277.76 L 888.29,277.75 L 890.38,277.74 L 892.48,277.73 L 894.58,277.72 L 896.67,277.71 L 898.76,277.70 L 900.86,277.70 L 902.96,277.69 L 905.05,277.68 L 907.14,277.68 L 909.24,277.67 L 911.34,277.67 L 913.43,277.66 L 915.53,277.65 L 917.62,277.65 L 919.72,277.64 L 921.81,277.64 L 923.91,277.64 L 926.00,277.63" class="solid"/>
  <text x="507.00" y="574" font-size="14" text-anchor="middle">标的价格 S</text>
  <text x="24" y="353.00" font-size="14" text-anchor="middle" transform="rotate(-90 24 353.00)">每股损益</text>
</svg>
